<mxfile host="app.diagrams.net" agent="Mozilla/5.0 (X11; Linux x86_64; rv:128.0) Gecko/20100101 Firefox/128.0" version="26.0.7">
  <diagram name="Page-1" id="ad52d381-51e7-2e0d-a935-2d0ddd2fd229">
    <mxGraphModel dx="2185" dy="514" grid="1" gridSize="10" guides="1" tooltips="1" connect="1" arrows="1" fold="1" page="1" pageScale="1" pageWidth="1100" pageHeight="850" background="none" math="0" shadow="0">
      <root>
        <mxCell id="0" />
        <mxCell id="1" parent="0" />
        <mxCell id="GzppEULCzXmEJpfFBmxU-16" style="rounded=0;orthogonalLoop=1;jettySize=auto;html=1;" edge="1" parent="1" source="GzppEULCzXmEJpfFBmxU-1" target="GzppEULCzXmEJpfFBmxU-11">
          <mxGeometry relative="1" as="geometry" />
        </mxCell>
        <mxCell id="GzppEULCzXmEJpfFBmxU-17" style="rounded=0;orthogonalLoop=1;jettySize=auto;html=1;" edge="1" parent="1" source="GzppEULCzXmEJpfFBmxU-1" target="GzppEULCzXmEJpfFBmxU-10">
          <mxGeometry relative="1" as="geometry" />
        </mxCell>
        <mxCell id="GzppEULCzXmEJpfFBmxU-1" value="IDF 2" style="ellipse;whiteSpace=wrap;html=1;rounded=1;shadow=1;comic=0;labelBackgroundColor=none;strokeWidth=2;fontFamily=Verdana;fontSize=12;align=center;" vertex="1" parent="1">
          <mxGeometry x="-460" y="200" width="120" height="80" as="geometry" />
        </mxCell>
        <mxCell id="GzppEULCzXmEJpfFBmxU-12" style="rounded=0;orthogonalLoop=1;jettySize=auto;html=1;" edge="1" parent="1" source="GzppEULCzXmEJpfFBmxU-2" target="GzppEULCzXmEJpfFBmxU-1">
          <mxGeometry relative="1" as="geometry" />
        </mxCell>
        <mxCell id="GzppEULCzXmEJpfFBmxU-13" style="rounded=0;orthogonalLoop=1;jettySize=auto;html=1;" edge="1" parent="1" source="GzppEULCzXmEJpfFBmxU-2" target="GzppEULCzXmEJpfFBmxU-3">
          <mxGeometry relative="1" as="geometry" />
        </mxCell>
        <mxCell id="GzppEULCzXmEJpfFBmxU-2" value="MDF" style="ellipse;whiteSpace=wrap;html=1;rounded=1;shadow=1;comic=0;labelBackgroundColor=none;strokeWidth=2;fontFamily=Verdana;fontSize=12;align=center;" vertex="1" parent="1">
          <mxGeometry x="-580" y="50" width="120" height="120" as="geometry" />
        </mxCell>
        <mxCell id="GzppEULCzXmEJpfFBmxU-14" style="rounded=0;orthogonalLoop=1;jettySize=auto;html=1;" edge="1" parent="1" source="GzppEULCzXmEJpfFBmxU-3" target="GzppEULCzXmEJpfFBmxU-4">
          <mxGeometry relative="1" as="geometry" />
        </mxCell>
        <mxCell id="GzppEULCzXmEJpfFBmxU-15" style="rounded=0;orthogonalLoop=1;jettySize=auto;html=1;" edge="1" parent="1" source="GzppEULCzXmEJpfFBmxU-3" target="GzppEULCzXmEJpfFBmxU-9">
          <mxGeometry relative="1" as="geometry" />
        </mxCell>
        <mxCell id="GzppEULCzXmEJpfFBmxU-3" value="IDF 1" style="ellipse;whiteSpace=wrap;html=1;rounded=1;shadow=1;comic=0;labelBackgroundColor=none;strokeWidth=2;fontFamily=Verdana;fontSize=12;align=center;" vertex="1" parent="1">
          <mxGeometry x="-700" y="200" width="120" height="80" as="geometry" />
        </mxCell>
        <mxCell id="GzppEULCzXmEJpfFBmxU-4" value="PA K" style="whiteSpace=wrap;html=1;rounded=1;shadow=1;comic=0;labelBackgroundColor=none;strokeWidth=2;fontFamily=Verdana;fontSize=12;align=center;arcSize=0;" vertex="1" parent="1">
          <mxGeometry x="-720" y="320" width="50" height="40" as="geometry" />
        </mxCell>
        <mxCell id="GzppEULCzXmEJpfFBmxU-9" value="PA D" style="whiteSpace=wrap;html=1;rounded=1;shadow=1;comic=0;labelBackgroundColor=none;strokeWidth=2;fontFamily=Verdana;fontSize=12;align=center;arcSize=0;" vertex="1" parent="1">
          <mxGeometry x="-610" y="320" width="50" height="40" as="geometry" />
        </mxCell>
        <mxCell id="GzppEULCzXmEJpfFBmxU-10" value="PA K" style="whiteSpace=wrap;html=1;rounded=1;shadow=1;comic=0;labelBackgroundColor=none;strokeWidth=2;fontFamily=Verdana;fontSize=12;align=center;arcSize=0;" vertex="1" parent="1">
          <mxGeometry x="-480" y="320" width="50" height="40" as="geometry" />
        </mxCell>
        <mxCell id="GzppEULCzXmEJpfFBmxU-11" value="PA D" style="whiteSpace=wrap;html=1;rounded=1;shadow=1;comic=0;labelBackgroundColor=none;strokeWidth=2;fontFamily=Verdana;fontSize=12;align=center;arcSize=0;" vertex="1" parent="1">
          <mxGeometry x="-370" y="320" width="50" height="40" as="geometry" />
        </mxCell>
        <mxCell id="GzppEULCzXmEJpfFBmxU-18" value="" style="shape=table;startSize=0;container=1;collapsible=0;childLayout=tableLayout;fontSize=11;fillColor=none;strokeColor=none;" vertex="1" parent="1">
          <mxGeometry x="-280" y="60" width="250" height="269.9999999999998" as="geometry" />
        </mxCell>
        <mxCell id="GzppEULCzXmEJpfFBmxU-19" value="" style="shape=tableRow;horizontal=0;startSize=0;swimlaneHead=0;swimlaneBody=0;strokeColor=inherit;top=0;left=0;bottom=0;right=0;collapsible=0;dropTarget=0;fillColor=none;points=[[0,0.5],[1,0.5]];portConstraint=eastwest;fontSize=16;" vertex="1" parent="GzppEULCzXmEJpfFBmxU-18">
          <mxGeometry width="250" height="65" as="geometry" />
        </mxCell>
        <mxCell id="GzppEULCzXmEJpfFBmxU-20" value="&lt;font style=&quot;font-size: 14px;&quot;&gt;&lt;b&gt;MDF&lt;/b&gt; - główny punkt dystrybucyjny umiejscowiony w serwerowni na parterze (przełącznik + patchpanel)&lt;/font&gt;" style="shape=partialRectangle;html=1;whiteSpace=wrap;connectable=0;strokeColor=inherit;overflow=hidden;fillColor=none;top=0;left=0;bottom=0;right=0;pointerEvents=1;fontSize=12;align=left;spacingLeft=5;" vertex="1" parent="GzppEULCzXmEJpfFBmxU-19">
          <mxGeometry width="250" height="65" as="geometry">
            <mxRectangle width="250" height="65" as="alternateBounds" />
          </mxGeometry>
        </mxCell>
        <mxCell id="GzppEULCzXmEJpfFBmxU-21" value="" style="shape=tableRow;horizontal=0;startSize=0;swimlaneHead=0;swimlaneBody=0;strokeColor=inherit;top=0;left=0;bottom=0;right=0;collapsible=0;dropTarget=0;fillColor=none;points=[[0,0.5],[1,0.5]];portConstraint=eastwest;fontSize=16;" vertex="1" parent="GzppEULCzXmEJpfFBmxU-18">
          <mxGeometry y="65" width="250" height="63" as="geometry" />
        </mxCell>
        <mxCell id="GzppEULCzXmEJpfFBmxU-22" value="&lt;font style=&quot;font-size: 14px;&quot;&gt;&lt;b&gt;IDF 1&lt;/b&gt; - pośredni punkt dystrybucyjny umiejscowiony w serwerowni na parterze (przełącznik + patchpanel)&lt;br&gt;&lt;/font&gt;" style="shape=partialRectangle;html=1;whiteSpace=wrap;connectable=0;strokeColor=inherit;overflow=hidden;fillColor=none;top=0;left=0;bottom=0;right=0;pointerEvents=1;fontSize=12;align=left;spacingLeft=5;" vertex="1" parent="GzppEULCzXmEJpfFBmxU-21">
          <mxGeometry width="250" height="63" as="geometry">
            <mxRectangle width="250" height="63" as="alternateBounds" />
          </mxGeometry>
        </mxCell>
        <mxCell id="GzppEULCzXmEJpfFBmxU-23" value="" style="shape=tableRow;horizontal=0;startSize=0;swimlaneHead=0;swimlaneBody=0;strokeColor=inherit;top=0;left=0;bottom=0;right=0;collapsible=0;dropTarget=0;fillColor=none;points=[[0,0.5],[1,0.5]];portConstraint=eastwest;fontSize=16;" vertex="1" parent="GzppEULCzXmEJpfFBmxU-18">
          <mxGeometry y="128" width="250" height="65" as="geometry" />
        </mxCell>
        <mxCell id="GzppEULCzXmEJpfFBmxU-24" value="&lt;font style=&quot;font-size: 14px;&quot;&gt;&lt;b&gt;IDF 2&lt;/b&gt; - pośredni punkt dystrybucyjny umiejscowiony w serwerowni na piętrze (przełącznik + patchpanel)&lt;br&gt;&lt;/font&gt;" style="shape=partialRectangle;html=1;whiteSpace=wrap;connectable=0;strokeColor=inherit;overflow=hidden;fillColor=none;top=0;left=0;bottom=0;right=0;pointerEvents=1;fontSize=12;align=left;spacingLeft=5;" vertex="1" parent="GzppEULCzXmEJpfFBmxU-23">
          <mxGeometry width="250" height="65" as="geometry">
            <mxRectangle width="250" height="65" as="alternateBounds" />
          </mxGeometry>
        </mxCell>
        <mxCell id="GzppEULCzXmEJpfFBmxU-25" style="shape=tableRow;horizontal=0;startSize=0;swimlaneHead=0;swimlaneBody=0;strokeColor=inherit;top=0;left=0;bottom=0;right=0;collapsible=0;dropTarget=0;fillColor=none;points=[[0,0.5],[1,0.5]];portConstraint=eastwest;fontSize=16;" vertex="1" parent="GzppEULCzXmEJpfFBmxU-18">
          <mxGeometry y="193" width="250" height="47" as="geometry" />
        </mxCell>
        <mxCell id="GzppEULCzXmEJpfFBmxU-26" value="&lt;font style=&quot;font-size: 14px;&quot;&gt;&lt;b&gt;PA K&lt;/b&gt; - punkty abonenckie na istniejące komputery&lt;br&gt;&lt;/font&gt;" style="shape=partialRectangle;html=1;whiteSpace=wrap;connectable=0;strokeColor=inherit;overflow=hidden;fillColor=none;top=0;left=0;bottom=0;right=0;pointerEvents=1;fontSize=12;align=left;spacingLeft=5;" vertex="1" parent="GzppEULCzXmEJpfFBmxU-25">
          <mxGeometry width="250" height="47" as="geometry">
            <mxRectangle width="250" height="47" as="alternateBounds" />
          </mxGeometry>
        </mxCell>
        <mxCell id="GzppEULCzXmEJpfFBmxU-36" style="shape=tableRow;horizontal=0;startSize=0;swimlaneHead=0;swimlaneBody=0;strokeColor=inherit;top=0;left=0;bottom=0;right=0;collapsible=0;dropTarget=0;fillColor=none;points=[[0,0.5],[1,0.5]];portConstraint=eastwest;fontSize=16;" vertex="1" parent="GzppEULCzXmEJpfFBmxU-18">
          <mxGeometry y="240" width="250" height="30" as="geometry" />
        </mxCell>
        <mxCell id="GzppEULCzXmEJpfFBmxU-37" value="&lt;font style=&quot;font-size: 14px;&quot;&gt;&lt;b&gt;PA D&lt;/b&gt; - punkty abonenckie na drukarki&lt;br&gt;&lt;/font&gt;" style="shape=partialRectangle;html=1;whiteSpace=wrap;connectable=0;strokeColor=inherit;overflow=hidden;fillColor=none;top=0;left=0;bottom=0;right=0;pointerEvents=1;fontSize=12;align=left;spacingLeft=5;" vertex="1" parent="GzppEULCzXmEJpfFBmxU-36">
          <mxGeometry width="250" height="30" as="geometry">
            <mxRectangle width="250" height="30" as="alternateBounds" />
          </mxGeometry>
        </mxCell>
      </root>
    </mxGraphModel>
  </diagram>
</mxfile>
